<?xml version="1.0" encoding="UTF-8" standalone="no"?>
<!-- Created with Inkscape (http://www.inkscape.org/) -->

<svg
   version="1.1"
   id="svg78"
   width="35.845608"
   height="31.039999"
   viewBox="0 0 35.845607 31.039999"
   sodipodi:docname="logo.jpg"
   inkscape:export-filename="logo.svg"
   inkscape:export-xdpi="96"
   inkscape:export-ydpi="96"
   xmlns:inkscape="http://www.inkscape.org/namespaces/inkscape"
   xmlns:sodipodi="http://sodipodi.sourceforge.net/DTD/sodipodi-0.dtd"
   xmlns="http://www.w3.org/2000/svg"
   xmlns:svg="http://www.w3.org/2000/svg">
  <defs
     id="defs82" />
  <sodipodi:namedview
     id="namedview80"
     pagecolor="#ffffff"
     bordercolor="#000000"
     borderopacity="0.25"
     inkscape:showpageshadow="2"
     inkscape:pageopacity="1"
     inkscape:pagecheckerboard="0"
     inkscape:deskcolor="#d1d1d1"
     showgrid="false" />
  <g
     inkscape:groupmode="layer"
     inkscape:label="Image"
     id="g84"
     transform="translate(-5.439998,-3.5199998)">
    <path
       style="fill:#fbfffe;fill-opacity:1;stroke-width:0.32"
       d="m 36.159999,31.839999 v -2.72 h -0.48 -0.48 l -0.03691,1.52 c -0.02029,0.836 -0.0563,1.736 -0.08,2 l -0.04309,0.48 H 20.8 6.56 L 6.49438,18.959999 6.42876,4.7999997 h 14.385618 14.385619 v 7.5591823 7.559182 l 0.48,-0.398365 0.48,-0.398364 V 11.320817 3.5199998 h -15.359999 -15.36 v 15.5199992 15.52 h 15.36 15.359999 z m -24.884936,-1.36 0.994925,-2.16 -0.04586,-2.612323 -0.04586,-2.612323 -0.80913,-1.192332 L 10.56,20.710689 V 19.252545 17.7944 L 9.716364,16.577032 8.872727,15.359664 v -1.207046 c 0,-4.023075 7.005459,-8.9608138 10.472216,-7.3812535 0.448281,0.2042505 0.81893,0.4562505 0.823665,0.5599999 0.0047,0.1037495 0.407377,0.6693194 0.894761,1.2568221 l 0.886154,1.0681871 1.988192,-1.1652473 c 1.093505,-0.6408857 2.130862,-1.0770716 2.305238,-0.9693014 0.530539,0.3278912 0.354344,1.7262691 -0.28659,2.2745382 -0.332,0.2839999 -0.977248,0.8507029 -1.433884,1.2593389 -0.456636,0.408636 -0.913498,0.608272 -1.015249,0.443636 -0.101751,-0.164636 -0.572503,-0.290211 -1.046116,-0.279055 L 21.6,11.240563 l 0.687255,0.277291 c 0.662656,0.267367 1.320207,0.962142 0.910593,0.962142 -0.109958,0 -0.478456,-0.149067 -0.818886,-0.331259 L 21.76,11.817478 21.093958,12.173933 c -0.366323,0.19605 -0.876199,0.813116 -1.133058,1.371258 l -0.467016,1.014804 0.117636,-1.039999 c 0.0647,-0.572 0.03458,-1.039462 -0.06694,-1.038804 -0.832102,0.0054 -7.785097,5.369637 -7.518695,5.800683 0.104068,0.168385 0.01518,0.515848 -0.197517,0.772138 l -0.386731,0.465982 h 0.378068 c 0.207937,0 0.29522,0.13405 0.193962,0.297889 -0.101258,0.163839 -0.0319,0.391957 0.154132,0.50693 0.18603,0.114973 0.253458,0.476153 0.149841,0.802623 l -0.188395,0.59358 0.644382,0.344863 0.644382,0.344862 0.505457,-0.977446 C 14.201468,20.8957 14.9195,20.22191 15.519092,19.935984 l 1.090169,-0.519865 0.503444,0.41782 0.503443,0.417821 -0.537669,0.594118 c -0.295718,0.326764 -0.681669,0.594117 -0.857669,0.594117 -0.176,0 -0.05936,-0.288 0.259192,-0.64 l 0.579192,-0.64 H 16.4408 c -1.623852,0 -2.588746,1.60423 -1.360321,2.261663 l 0.680478,0.364181 0.774579,-0.352922 C 17.531123,21.979297 17.6,21.986791 17.6,22.548736 c 0,0.257808 0.28971,0.62379 0.643801,0.813293 l 0.6438,0.344552 1.5162,-0.650533 1.516199,-0.650532 -0.853963,0.717239 -0.853963,0.71724 0.754157,0.56 c 1.081502,0.80307 1.494643,0.701165 2.370436,-0.584689 l 0.776668,-1.140317 0.617675,0.161526 c 0.339722,0.08884 0.962221,0.03053 1.383332,-0.129577 l 0.765657,-0.291102 v -0.657964 c 0,-0.77606 -0.847531,-1.198345 -1.365509,-0.680367 -0.484972,0.484972 -1.542924,0.441936 -2.245978,-0.09136 l -0.571487,-0.4335 0.609236,-2.196323 c 0.33508,-1.207977 0.723307,-2.484323 0.862728,-2.836323 l 0.253493,-0.64 -0.849979,0.774596 c -0.826615,0.753302 -1.667845,0.712746 -0.91117,-0.04393 0.208266,-0.208267 0.378666,-0.590968 0.378666,-0.850447 v -0.47178 l -0.798738,0.750375 c -0.439306,0.412707 -0.907306,0.639761 -1.04,0.504566 -0.132694,-0.135196 0.261781,-0.667506 0.876611,-1.182911 l 1.117874,-0.937101 0.596549,0.81893 0.596549,0.81893 0.525578,-0.395181 0.525577,-0.395182 -0.4,0.448567 c -0.22,0.246712 -0.4,0.651378 -0.4,0.899258 v 0.450691 l 0.830609,-0.20847 c 0.482512,-0.121103 1.025674,-0.04658 1.296061,0.177821 l 0.465451,0.38629 0.488485,-0.488485 c 0.268666,-0.268667 0.568833,-1.087528 0.667037,-1.819692 l 0.178552,-1.331207 -0.572694,-0.63282 c -0.724373,-0.800423 -1.498074,-0.805455 -2.21397,-0.0144 -0.507837,0.561154 -1.459531,0.594818 -1.459531,0.05163 0,-0.293174 1.951946,-0.990048 2.773124,-0.990048 2.196018,0 2.658416,4.331345 0.581084,5.443099 -0.419973,0.224763 -0.90225,0.80643 -1.071728,1.292593 -0.169477,0.486163 -0.616293,0.981737 -0.992925,1.101275 -0.870033,0.276138 -0.665582,0.96052 0.290033,0.97086 0.731431,0.0079 1.620412,0.902417 1.620412,1.630477 0,0.656164 -0.916128,1.365214 -2.21626,1.715303 l -1.227459,0.33052 0.456774,1.325796 c 0.265911,0.771813 0.368504,1.727685 0.245525,2.287602 l -0.211248,0.961807 2.107313,-0.196784 c 2.601233,-0.242907 3.770022,-0.823037 4.644615,-2.305362 0.371952,-0.630413 1.073281,-1.319676 1.55851,-1.531696 l 0.88223,-0.385491 0.119043,-0.96 c 0.06548,-0.528 0.178138,-4.668 0.250365,-9.199999 L 34.260732,5.4399957 H 20.810366 7.36 v 13.5999993 13.6 h 1.460069 1.460068 z m 20.129519,1.61103 -0.307219,-0.548969 0.623473,-1.291031 0.623474,-1.29103 -1.140719,1.263221 c -0.627394,0.694771 -1.532864,1.521822 -2.012154,1.837892 l -0.871438,0.574669 1.695901,0.0022 1.695901,0.0022 -0.307219,-0.548969 z m 2.835417,-0.464364 c 0,-0.557333 -0.036,-0.953333 -0.08,-0.88 -0.044,0.07333 -0.429101,0.529334 -0.855779,1.013334 l -0.775782,0.88 h 0.855782 0.855779 z m -0.962006,-0.954678 c 1.068544,-1.475082 1.177443,-1.871988 0.513616,-1.871988 -0.246618,0 -0.74576,0.504 -1.10921,1.12 -0.363568,0.616201 -0.504102,1.12 -0.312425,1.12 h 0.34839 l -0.398365,0.48 c -0.219101,0.264 -0.309635,0.48 -0.20119,0.48 0.108448,0 0.63008,-0.597606 1.159184,-1.328012 z M 15.500712,29.363596 16.984263,27.367194 15.612131,26.985908 C 14.857459,26.7762 13.916,26.505787 13.52,26.384989 l -0.72,-0.219634 -0.01443,1.077322 c -0.0079,0.592527 -0.20219,1.509322 -0.431668,2.037322 l -0.417233,0.96 0.991666,0.546587 c 0.545417,0.300623 1.013528,0.552623 1.040248,0.56 0.02672,0.0074 0.716178,-0.884968 1.532131,-1.98299 z m 16.87355,-0.984222 0.854262,-0.621675 0.79601,0.199785 c 0.437804,0.109882 1.025385,0.287806 1.305737,0.395387 0.926339,0.355469 0.529312,-0.510338 -0.530272,-1.156379 l -1.04,-0.634101 0.656,-0.0012 c 0.3608,-6.72e-4 0.8264,0.169204 1.034666,0.377471 0.526205,0.526204 0.921683,0.03042 0.505744,-0.634015 -0.187523,-0.299559 -0.830199,-0.592443 -1.428167,-0.650855 l -1.087209,-0.106202 0.799481,-0.430657 0.799485,-0.430657 -0.580406,-0.225207 c -0.954013,-0.370173 -2.069805,0.381616 -3.222273,2.171074 l -1.08703,1.68784 0.30091,0.568963 c 0.312585,0.591037 0.466823,0.550166 1.923062,-0.509588 z m 6.900771,-3.324431 c 0.07278,-0.218368 -0.867997,-0.886803 -2.173239,-1.544111 l -2.301574,-1.159055 -0.316986,0.316988 -0.316988,0.316987 0.993302,1.236031 0.993302,1.236031 1.496922,-0.0089 c 0.87496,-0.0052 1.550246,-0.168896 1.625261,-0.393963 z m 1.444966,-1.820399 c 0.583542,-0.442971 0.800195,-1.340764 0.24,-0.994545 -0.176,0.108774 -0.32,0.05377 -0.32,-0.122229 0,-0.176 0.144,-0.408997 0.32,-0.517771 0.176,-0.108774 0.32,-0.338339 0.32,-0.510144 v -0.312373 l -0.597926,0.32 c -0.328858,0.176 -0.685379,0.232546 -0.792266,0.125658 -0.106889,-0.106888 -0.437398,0.0062 -0.734464,0.251259 l -0.540125,0.4456 0.398317,-0.747406 c 0.474829,-0.890973 0.236247,-1.265063 -0.445801,-0.699012 l -0.487735,0.404783 v -0.398365 -0.398364 l -0.500121,0.415064 -0.500122,0.415065 0.214813,-0.855882 c 0.276925,-1.103363 0.168064,-1.079859 -1.111091,0.239894 l -1.062071,1.095778 2.199296,1.128484 c 2.482928,1.274019 2.623347,1.303535 3.399296,0.714506 z m -16.4,-2.754545 c 0,-0.176 -0.224498,-0.32 -0.498885,-0.32 -0.274387,0 -0.409889,0.144 -0.301115,0.32 0.108775,0.176 0.333273,0.32 0.498886,0.32 0.165613,0 0.301114,-0.144 0.301114,-0.32 z m 1.725764,-2.426171 c 0.10683,-0.278395 0.194236,-0.782395 0.194236,-1.12 v -0.613829 h -0.80686 -0.806861 l -0.374945,0.822917 -0.374946,0.822916 0.461806,0.292184 c 0.710779,0.449708 1.492518,0.356229 1.70757,-0.204188 z"
       id="path248"
       sodipodi:nodetypes="cccccsccccccccccccccccccccccccccccccsscscsssssscssscsscscsccsssscccsscccssscsscssscccccsscsscssscsscssscssscccccsscsscsscssssssscsscsscsssccsccccccccccccsscccccssscccssssscsssccssccscscscccsssccssscccsscsccsscccccsssssssscssccsscccccsscssssssssscccccss" />
  </g>
</svg>
